<svg id="Livello_1" data-name="Livello 1" xmlns="http://www.w3.org/2000/svg" viewBox="0 0 666.83 197.23"><defs><style>.cls-1{fill:#1d1d1b;}</style></defs><path class="cls-1" d="M17.39,30.79c10.61-.74,21.36-1.29,31.94.13L47,30.6a51.75,51.75,0,0,1,12.85,3.28L57.79,33a28,28,0,0,1,6,3.43L62,35.08a21.19,21.19,0,0,1,3.68,3.65L64.36,37a19.22,19.22,0,0,1,2.41,4.13L65.89,39a22.1,22.1,0,0,1,1.46,5.54L67,42.25a73.82,73.82,0,0,1,.22,9v64.85c0,4.54,4,8.9,8.69,8.69a8.85,8.85,0,0,0,8.7-8.69V46.24a31.78,31.78,0,0,0-3.89-16c-3.82-6.64-10.15-10.75-17.11-13.49-6.54-2.57-13.78-3.43-20.74-3.87a171.6,171.6,0,0,0-20.66.19c-1.62.09-3.24.2-4.86.32A9.21,9.21,0,0,0,11.24,16,8.86,8.86,0,0,0,8.69,22.1c.2,4.44,3.84,9,8.7,8.69Z"/><path class="cls-1" d="M178.53,96.13V67c0-4.55-4-8.9-8.7-8.69A8.84,8.84,0,0,0,161.14,67V96.13c0,4.55,4,8.9,8.69,8.69a8.84,8.84,0,0,0,8.7-8.69Z"/><path class="cls-1" d="M67.26,116.15a55.63,55.63,0,0,0,111.24,1.76c.25-7,0-14,0-21v-.74c0-4.55-4-8.9-8.7-8.69a8.84,8.84,0,0,0-8.69,8.69V115.5a54.84,54.84,0,0,1-.41,6.9l.31-2.31a48.13,48.13,0,0,1-3.28,12l.88-2.08a48.12,48.12,0,0,1-6.16,10.5l1.36-1.76a48.88,48.88,0,0,1-8.32,8.32l1.76-1.36a48.12,48.12,0,0,1-10.5,6.16l2.07-.88a47.75,47.75,0,0,1-12,3.28l2.31-.31a48.5,48.5,0,0,1-12.51,0l2.31.31a47.71,47.71,0,0,1-12-3.28l2.08.88a48.12,48.12,0,0,1-10.5-6.16l1.76,1.36A48.88,48.88,0,0,1,92,138.77l1.36,1.76A48.12,48.12,0,0,1,87.15,130l.88,2.08a47.71,47.71,0,0,1-3.28-12l.31,2.31a48.35,48.35,0,0,1-.41-6.25c0-4.55-4-8.91-8.7-8.7a8.84,8.84,0,0,0-8.69,8.7Z"/><path class="cls-1" d="M611,93.17a78.33,78.33,0,0,0-14.16-45,80.58,80.58,0,0,0-38-29.07A78.39,78.39,0,0,0,472.2,42.67a83.52,83.52,0,0,0-12.86,21.58A76.89,76.89,0,0,0,454,87.57a78.46,78.46,0,0,0,45.27,76.87,84.65,84.65,0,0,0,12,4.46,85.65,85.65,0,0,0,12.82,2.39,78.46,78.46,0,0,0,85.83-65.08,86.41,86.41,0,0,0,1.13-13c0-4.55-4-8.91-8.69-8.7a8.86,8.86,0,0,0-8.7,8.7,71.69,71.69,0,0,1-.62,9.37l.31-2.31a70.75,70.75,0,0,1-4.87,17.84l.88-2.08a71.4,71.4,0,0,1-9.15,15.6l1.36-1.76a71.44,71.44,0,0,1-12.47,12.47l1.76-1.36a71.4,71.4,0,0,1-15.6,9.15l2.08-.88a70.75,70.75,0,0,1-17.84,4.87l2.31-.31a71.76,71.76,0,0,1-18.75,0l2.31.31a70.75,70.75,0,0,1-17.84-4.87l2.08.88a71.4,71.4,0,0,1-15.6-9.15l1.76,1.36a71.44,71.44,0,0,1-12.47-12.47l1.36,1.76a71,71,0,0,1-9.14-15.6l.87,2.08a70.75,70.75,0,0,1-4.87-17.84l.31,2.31a71.76,71.76,0,0,1,0-18.75l-.31,2.31a70.75,70.75,0,0,1,4.87-17.84l-.87,2.08a71,71,0,0,1,9.14-15.6l-1.36,1.76A71.44,71.44,0,0,1,495.74,44L494,45.39a71.4,71.4,0,0,1,15.6-9.15l-2.08.88a70.75,70.75,0,0,1,17.84-4.87l-2.31.31a71.76,71.76,0,0,1,18.75,0l-2.31-.31a70.75,70.75,0,0,1,17.84,4.87l-2.08-.88a71.4,71.4,0,0,1,15.6,9.15L569.07,44A71.44,71.44,0,0,1,581.54,56.5l-1.36-1.76a71.4,71.4,0,0,1,9.15,15.6l-.88-2.08a70.75,70.75,0,0,1,4.87,17.84L593,83.79a71.73,71.73,0,0,1,.62,9.38c0,4.54,4,8.9,8.7,8.69A8.84,8.84,0,0,0,611,93.17Z"/><path class="cls-1" d="M413,143.19c-16.93-18.54-40-31.52-64.88-35.33a136,136,0,0,0-52.89,2.79,107.85,107.85,0,0,0-17.64,6.5,100.61,100.61,0,0,0-33.72,26,9.27,9.27,0,0,0-2.55,6.15,8.86,8.86,0,0,0,2.55,6.15A8.72,8.72,0,0,0,250,158a8.59,8.59,0,0,0,6.15-2.54A100.14,100.14,0,0,1,271,141.19l-1.76,1.36a91.63,91.63,0,0,1,20.14-11.75l-2.08.88a105.35,105.35,0,0,1,26.39-7l-2.31.31a123.25,123.25,0,0,1,32.56-.28l-2.31-.31a103.57,103.57,0,0,1,26.24,7.17l-2.08-.88A103.8,103.8,0,0,1,388.51,144l-1.76-1.36a110,110,0,0,1,13.9,12.87,8.77,8.77,0,0,0,12.3,0,8.9,8.9,0,0,0,0-12.3Z"/><path class="cls-1" d="M161.14,116.15c.18,24.91,17.21,47.5,41.47,53.81a56.56,56.56,0,0,0,40.19-4.64,61.73,61.73,0,0,0,15-11.51l23.5-23.5L314.65,97c6.51-6.51,13.36-12.8,19.58-19.58l.3-.3H322.24l25.82,25.82,42.59,42.6c3.68,3.67,7.27,7.46,11.06,11a55.93,55.93,0,0,0,25.21,13.72c6.18,1.46,12.38,1.55,18.68,1.55H652.24c4.55,0,8.91-4,8.7-8.69a8.85,8.85,0,0,0-8.7-8.7H451.42c-3.52,0-7,0-10.55,0-1.34,0-2.68,0-4-.1-.57,0-3.37-.4-1.54-.11-1.26-.2-2.51-.43-3.76-.72a54.81,54.81,0,0,1-5.77-1.75c-1.55-.55-.32-.1,0,0-.46-.19-.91-.4-1.36-.61-1.12-.53-2.22-1.1-3.29-1.71-.86-.49-1.7-1-2.52-1.55l-1.22-.83s-1.9-1.43-.9-.64c.85.67-.36-.31-.55-.47-.38-.32-.75-.64-1.11-1-.64-.57-1.26-1.17-1.87-1.77l-.87-.87-5.58-5.58L364.12,94.37l-27.69-27.7-1.9-1.9a8.83,8.83,0,0,0-12.29,0L275.4,111.61l-26.6,26.6c-1.65,1.65-3.29,3.31-5,4.95-.36.36-.72.71-1.09,1.05-.53.51-1.08,1-1.64,1.48-.2.17-2.12,1.67-.54.48a46.35,46.35,0,0,1-7.55,4.64c-.67.33-1.34.64-2,.93,1.86-.78-.46.14-.7.23a44.83,44.83,0,0,1-4.33,1.31c-1.49.38-3,.67-4.5.9,2.06-.31-.49,0-.77,0-1,.09-2.09.14-3.13.16-1.39,0-2.79,0-4.18-.12a8.78,8.78,0,0,1-2-.18c2.2.75-.38-.07-1-.18a45.66,45.66,0,0,1-4.45-1.06,16,16,0,0,1-4.27-1.47c1.73,1.18.24.11-.28-.14-.78-.36-1.54-.74-2.29-1.14-1.12-.59-2.22-1.24-3.29-1.93-.54-.34-1.06-.69-1.58-1.06-.35-.24-.69-.49-1-.74l.25.2c-1.13-.95-2.25-1.9-3.31-2.93a44,44,0,0,1-3-3.24q-.61-.72-1.2-1.47c1.46,1.86-.26-.42-.51-.8a53.1,53.1,0,0,1-4-7.22c-.92-2,.61,1.77-.1-.29-.28-.82-.6-1.62-.86-2.44-.46-1.45-.86-2.92-1.18-4.4-.14-.65-.26-1.29-.37-1.94-.08-.43-.14-.87-.21-1.31.16,1.22.19,1.33.07.33-.1-1.57-.22-3.13-.23-4.71,0-4.55-4-8.91-8.7-8.7a8.84,8.84,0,0,0-8.69,8.7Z"/><path class="cls-1" d="M503.42,188.76l2-2.22a6.28,6.28,0,0,0,3.74,1.5c1.43,0,2.13-.54,2.13-1.39s-.86-1.19-2.19-1.71l-2-.79a4.24,4.24,0,0,1-3.07-3.91c0-2.38,2.25-4.27,5.42-4.27a7.28,7.28,0,0,1,4.9,1.88l-1.74,2a5.1,5.1,0,0,0-3.16-1.12c-1.18,0-1.94.46-1.94,1.28s1,1.2,2.32,1.7l1.94.74c1.86.71,3,1.87,3,3.9,0,2.38-2.11,4.44-5.73,4.44A8.66,8.66,0,0,1,503.42,188.76Z"/><path class="cls-1" d="M520.58,176.23H524v5.86h.09l4.53-5.86h3.78l-4.6,5.72,5.45,8.62H529.5l-3.7-6.06L524,186.73v3.84h-3.44Z"/><path class="cls-1" d="M540.71,176.23h4.12l4.78,14.34H546l-2-7.26c-.43-1.44-.83-3.13-1.24-4.63h-.09c-.37,1.52-.78,3.19-1.2,4.63l-2,7.26h-3.52Zm-1.62,8.41h7.32v2.51h-7.32Z"/><path class="cls-1" d="M555.73,179h-4.19v-2.72h11.82V179h-4.19v11.62h-3.44Z"/><path class="cls-1" d="M568.93,176.23h9.53V179h-6.09v2.88h5.19v2.72h-5.19v3.3h6.33v2.72h-9.77Z"/><path class="cls-1" d="M584.92,176.23h5.23c3.35,0,6.05,1.13,6.05,4.61s-2.73,4.86-6,4.86h-1.88v4.87h-3.44Zm5.12,6.9c1.89,0,2.79-.79,2.79-2.29s-1-2-2.88-2h-1.59v4.33Z"/><path class="cls-1" d="M603.7,176.23h4.11l4.78,14.34H609l-2-7.26c-.42-1.44-.83-3.13-1.24-4.63h-.09c-.37,1.52-.77,3.19-1.2,4.63l-2,7.26h-3.52Zm-1.63,8.41h7.32v2.51h-7.32Z"/><path class="cls-1" d="M617.25,176.23h5.48c3.23,0,5.88,1.06,5.88,4.47s-2.65,4.71-5.88,4.71h-2v5.16h-3.44Zm5.2,6.61c1.81,0,2.78-.73,2.78-2.14s-1-1.9-2.78-1.9h-1.76v4Zm-.35,1.72,2.38-2.08,4.86,8.09h-3.85Z"/><path class="cls-1" d="M634.76,176.23h3.44v5.86h.09l4.53-5.86h3.78L642,182l5.45,8.62h-3.77l-3.7-6.06-1.78,2.22v3.84h-3.44Z"/><path class="cls-1" d="M650.84,188.76l2-2.22a6.28,6.28,0,0,0,3.74,1.5c1.43,0,2.14-.54,2.14-1.39s-.87-1.19-2.2-1.71l-2-.79a4.24,4.24,0,0,1-3.07-3.91c0-2.38,2.26-4.27,5.42-4.27a7.26,7.26,0,0,1,4.9,1.88l-1.74,2a5.08,5.08,0,0,0-3.16-1.12c-1.18,0-1.94.46-1.94,1.28s1,1.2,2.33,1.7l1.93.74c1.86.71,3,1.87,3,3.9,0,2.38-2.1,4.44-5.73,4.44A8.68,8.68,0,0,1,650.84,188.76Z"/></svg>